<svg width="42" height="42" viewBox="0 0 42 42" fill="none" xmlns="http://www.w3.org/2000/svg">
<g id="facebook">
<path id="Vector" d="M21 41.9993C20.9991 41.9988 20.998 41.9986 20.997 41.9986C19.8693 41.9985 18.7374 41.9081 17.6351 41.7303C12.7649 40.9466 8.30144 38.4429 5.06785 34.6811C1.79895 30.8783 0 26.0193 0 20.9993C0 9.42012 9.41978 0 21 0C32.5802 0 42 9.42012 42 20.9993C42 26.097 40.1502 31.0139 36.7924 34.8421C33.4656 38.635 28.8948 41.1047 23.9244 41.798C22.9633 41.9321 21.981 41.9999 21.003 42C21.002 42 21.0009 41.9998 21 41.9993ZM20.9986 1.69314C10.3531 1.69314 1.69305 10.3535 1.69305 20.9979C1.69305 30.5295 8.51042 38.5446 17.9048 40.057C19.7983 40.362 21.7837 40.3831 23.6885 40.1177C33.1606 38.7974 40.3041 30.5776 40.3041 20.9979C40.3041 10.3535 31.644 1.69314 20.9986 1.69314Z" fill="#C5DBE9"/>
<path id="Vector_2" d="M23.8047 17.0258C23.8042 17.0262 23.8039 17.0268 23.8039 17.0275V18.8977C23.8039 20.2889 24.9317 21.4167 26.3229 21.4167C27.8584 21.4167 29.0366 22.7787 28.8157 24.2981L28.6798 25.2325C28.5047 26.4371 27.4719 27.3305 26.2546 27.3305C24.9012 27.3305 23.8039 28.4277 23.8039 29.7812V38.1412C23.8039 39.7546 22.6116 41.1493 20.9982 41.1493C19.13 41.1493 17.7703 39.5189 17.7703 37.6507V29.8348C17.7703 28.4517 16.6491 27.3305 15.266 27.3305C13.8829 27.3305 12.7617 26.2093 12.7617 24.8263V23.921C12.7617 22.5379 13.8829 21.4167 15.266 21.4167C16.6491 21.4167 17.7703 20.2955 17.7703 18.9124V16.0451C17.7703 12.713 20.4707 10.0105 23.8039 10.0098C23.8047 10.0098 23.8054 10.0104 23.8054 10.0112C23.8054 10.012 23.806 10.0126 23.8068 10.0126C23.8161 10.0123 23.8242 10.0098 23.8336 10.0098H26.6788C28.0912 10.0098 29.2361 11.1547 29.2361 12.5671C29.2361 13.9794 28.0912 15.1244 26.6788 15.1244H25.706C24.6572 15.1244 23.8059 15.9753 23.8054 17.024C23.8054 17.0247 23.8051 17.0253 23.8047 17.0258Z" fill="#C5DBE9"/>
</g>
</svg>
