<svg width="42" height="42" viewBox="0 0 42 42" fill="none" xmlns="http://www.w3.org/2000/svg">
<g id="instagram">
<path id="Vector" d="M21.0462 42H20.9538C9.4 42 0 32.6 0 21.0462V20.9538C0 9.39998 9.4 0 20.9538 0H21.0462C32.6 0 42 9.39998 42 20.9538V21.0462C42 32.6 32.6 42 21.0462 42ZM20.9538 1.42166C10.1833 1.42166 1.42166 10.1833 1.42166 20.9538V21.0462C1.42166 31.8167 10.1833 40.5783 20.9538 40.5783H21.0462C31.8167 40.5783 40.5783 31.8167 40.5783 21.0462V20.9538C40.5783 10.1833 31.8167 1.42166 21.0462 1.42166H20.9538Z" fill="#C6E9DD"/>
<g id="Group">
<path id="Vector_2" d="M27.2785 8.9668H14.7225C11.2536 8.9668 8.43164 11.7888 8.43164 15.2576V26.7446C8.43164 30.2135 11.2536 33.0355 14.7225 33.0355H27.2785C30.7474 33.0355 33.5694 30.2135 33.5694 26.7446V15.2576C33.5694 11.7888 30.7474 8.9668 27.2785 8.9668ZM10.6508 15.2576C10.6508 13.0128 12.4777 11.186 14.7225 11.186H27.2785C29.5233 11.186 31.3502 13.0128 31.3502 15.2576V26.7446C31.3502 28.9894 29.5233 30.8162 27.2785 30.8162H14.7225C12.4777 30.8162 10.6508 28.9894 10.6508 26.7446V15.2576Z" fill="#C6E9DD"/>
<path id="Vector_3" d="M21 26.8508C24.2257 26.8508 26.8515 24.2264 26.8515 20.9993C26.8515 17.7721 24.2271 15.1477 21 15.1477C17.7728 15.1477 15.1484 17.7721 15.1484 20.9993C15.1484 24.2264 17.7728 26.8508 21 26.8508ZM21 17.3683C23.0031 17.3683 24.6323 18.9976 24.6323 21.0007C24.6323 23.0038 23.0031 24.633 21 24.633C18.9969 24.633 17.3676 23.0038 17.3676 21.0007C17.3676 18.9976 18.9969 17.3683 21 17.3683Z" fill="#C6E9DD"/>
<path id="Vector_4" d="M27.393 16.0927C28.2617 16.0927 28.9696 15.3861 28.9696 14.5161C28.9696 13.646 28.2631 12.9395 27.393 12.9395C26.523 12.9395 25.8164 13.646 25.8164 14.5161C25.8164 15.3861 26.523 16.0927 27.393 16.0927Z" fill="#C6E9DD"/>
</g>
</g>
</svg>
