<svg aria-hidden="true" style="position: absolute; width: 0; height: 0; overflow: hidden;" version="1.1" xmlns="http://www.w3.org/2000/svg" xmlns:xlink="http://www.w3.org/1999/xlink">
<defs>
<symbol id="icon-facebook" viewBox="0 0 32 32">
<path d="M16 31.999c-0.001-0-0.002-0.001-0.002-0.001-0.859-0-1.722-0.069-2.561-0.204-3.711-0.597-7.111-2.505-9.575-5.371-2.491-2.897-3.861-6.599-3.861-10.424 0-8.822 7.177-15.999 16-15.999s16 7.177 16 15.999c0 3.884-1.409 7.63-3.968 10.547-2.535 2.89-6.017 4.771-9.804 5.3-0.732 0.102-1.481 0.154-2.226 0.154-0.001 0-0.002-0-0.002-0.001zM15.999 1.29c-8.111 0-14.709 6.598-14.709 14.708 0 7.262 5.194 13.369 12.352 14.521 1.443 0.232 2.955 0.248 4.407 0.046 7.217-1.006 12.66-7.269 12.66-14.567 0-8.11-6.598-14.708-14.709-14.708z"></path>
<path d="M18.137 12.972c-0 0-0.001 0.001-0.001 0.001v1.425c0 1.060 0.859 1.919 1.919 1.919 1.17 0 2.068 1.038 1.899 2.195l-0.104 0.712c-0.133 0.918-0.92 1.598-1.848 1.598-1.031 0-1.867 0.836-1.867 1.867v6.37c0 1.229-0.908 2.292-2.138 2.292-1.423 0-2.459-1.242-2.459-2.666v-5.955c0-1.054-0.854-1.908-1.908-1.908s-1.908-0.854-1.908-1.908v-0.69c0-1.054 0.854-1.908 1.908-1.908s1.908-0.854 1.908-1.908v-2.185c0-2.539 2.057-4.598 4.597-4.598 0.001 0 0.001 0 0.001 0.001s0 0.001 0.001 0.001c0.007-0 0.013-0.002 0.020-0.002h2.168c1.076 0 1.948 0.872 1.948 1.948s-0.872 1.948-1.948 1.948h-0.741c-0.799 0-1.448 0.648-1.448 1.447 0 0.001-0 0.001-0.001 0.001z"></path>
</symbol>
<symbol id="icon-instagram" viewBox="0 0 32 32">
<path d="M16.035 32h-0.070c-8.803 0-15.965-7.162-15.965-15.965v-0.070c0-8.803 7.162-15.965 15.965-15.965h0.070c8.803 0 15.965 7.162 15.965 15.965v0.070c0 8.803-7.162 15.965-15.965 15.965zM15.965 1.083c-8.206 0-14.882 6.676-14.882 14.882v0.070c0 8.206 6.676 14.882 14.882 14.882h0.070c8.206 0 14.882-6.675 14.882-14.882v-0.070c0-8.206-6.675-14.882-14.882-14.882h-0.070z"></path>
<path d="M20.784 6.832h-9.566c-2.643 0-4.793 2.15-4.793 4.793v8.752c0 2.643 2.15 4.793 4.793 4.793h9.566c2.643 0 4.793-2.15 4.793-4.793v-8.752c0-2.643-2.15-4.793-4.793-4.793zM8.115 11.625c0-1.71 1.392-3.102 3.102-3.102h9.566c1.71 0 3.102 1.392 3.102 3.102v8.752c0 1.71-1.392 3.102-3.102 3.102h-9.566c-1.71 0-3.102-1.392-3.102-3.102v-8.752z"></path>
<path d="M16 20.458c2.458 0 4.458-2 4.458-4.458s-2-4.458-4.458-4.458c-2.459 0-4.458 2-4.458 4.458s2 4.458 4.458 4.458zM16 13.233c1.526 0 2.767 1.241 2.767 2.768s-1.241 2.767-2.767 2.767c-1.526 0-2.768-1.241-2.768-2.767s1.241-2.768 2.768-2.768z"></path>
<path d="M20.871 12.261c0.662 0 1.201-0.538 1.201-1.201s-0.538-1.201-1.201-1.201c-0.663 0-1.201 0.538-1.201 1.201s0.538 1.201 1.201 1.201z"></path>
</symbol>
<symbol id="icon-twitter" viewBox="0 0 32 32">
<path d="M16.035 32h-0.070c-8.803 0-15.965-7.162-15.965-15.965v-0.070c0-8.803 7.162-15.965 15.965-15.965h0.070c8.803 0 15.965 7.162 15.965 15.965v0.070c0 8.803-7.162 15.965-15.965 15.965zM15.965 1.083c-8.206 0-14.882 6.676-14.882 14.882v0.070c0 8.206 6.676 14.882 14.882 14.882h0.070c8.206 0 14.882-6.675 14.882-14.882v-0.070c0-8.206-6.675-14.882-14.882-14.882h-0.070z"></path>
<path d="M25.029 10.404c-0 0-0.001 0-0.001 0.001-0.423 0.428-1.010 0.693-1.661 0.693-0.079 0-0.104-0.102-0.039-0.147 0.578-0.407 1.023-0.989 1.257-1.67 0-0.001 0.001-0.001 0.001-0.002s0-0.001 0-0.001c0.002-0.005 0.003-0.009 0.005-0.014 0.029-0.081-0.071-0.138-0.135-0.081-0.51 0.455-1.158 0.759-1.875 0.84-0.127 0.015-0.256 0.023-0.385 0.023-0.077 0-0.149-0.035-0.205-0.089-0.26-0.254-0.563-0.467-0.895-0.627-0.41-0.2-0.87-0.318-1.354-0.334-0.040-0.002-0.079-0.003-0.12-0.003-0.41 0-0.805 0.073-1.169 0.207-0.093 0.034-0.184 0.071-0.273 0.115-1.154 0.54-1.952 1.714-1.952 3.072 0 0.409-0.311 0.793-0.716 0.742-0.078-0.010-0.155-0.021-0.232-0.032-0.11-0.017-0.22-0.037-0.329-0.057-0.875-0.162-1.71-0.442-2.486-0.823-0.694-0.339-1.341-0.758-1.93-1.246-0.495-0.408-0.948-0.863-1.353-1.362-0.027-0.031-0.075-0.030-0.095 0.006-0.008 0.013-0.015 0.027-0.022 0.040-0.283 0.495-0.443 1.067-0.443 1.678 0 0.018 0 0.039 0.001 0.057 0.006 0.457 0.104 0.893 0.277 1.289 0.074 0.175 0.164 0.341 0.267 0.499 0.303 0.467 0.717 0.856 1.207 1.124 0.020 0.013 0.015 0.046-0.008 0.050-0.010 0.001-0.021 0.002-0.031 0.003-0.101 0.013-0.204 0.020-0.308 0.020-0.489 0-0.946-0.143-1.328-0.39-0.033-0.021-0.076 0-0.076 0.039 0 0.969 0.406 1.844 1.057 2.46 0.306 0.291 0.666 0.526 1.063 0.686 0.204 0.083 0.207 0.364-0.013 0.364-0.372 0-0.716 0.352-0.515 0.665 0.2 0.31 0.448 0.585 0.735 0.814 0.657 0.526 0.994 1.64 0.209 1.94-0.551 0.211-1.15 0.326-1.775 0.326-0.314 0-0.6 0.625-0.318 0.763 1.296 0.636 2.755 0.992 4.296 0.992 5.397 0 9.772-4.375 9.772-9.772 0-0.523 0.309-0.998 0.73-1.309 0.525-0.388 0.934-0.924 1.165-1.547 0-0.001-0-0.002-0.002-0.002z"></path>
</symbol>
</defs>
</svg>
