<svg width="42" height="42" viewBox="0 0 42 42" fill="none" xmlns="http://www.w3.org/2000/svg">
<g id="twitter">
<path id="Vector" d="M21.0462 42H20.9538C9.4 42 0 32.6 0 21.0462V20.9538C0 9.39998 9.4 0 20.9538 0H21.0462C32.6 0 42 9.39998 42 20.9538V21.0462C42 32.6 32.6 42 21.0462 42ZM20.9538 1.42166C10.1833 1.42166 1.42166 10.1833 1.42166 20.9538V21.0462C1.42166 31.8167 10.1833 40.5783 20.9538 40.5783H21.0462C31.8167 40.5783 40.5783 31.8167 40.5783 21.0462V20.9538C40.5783 10.1833 31.8167 1.42166 21.0462 1.42166H20.9538Z" fill="#F7C1D9"/>
<path id="Vector_2" d="M32.8505 13.6558C32.8499 13.6558 32.8493 13.6561 32.8489 13.6565C32.2931 14.2177 31.5228 14.5657 30.6688 14.5657C30.5648 14.5657 30.5321 14.4322 30.6171 14.3724C31.3762 13.8388 31.9604 13.0741 32.2675 12.1805C32.2679 12.1794 32.2689 12.179 32.2694 12.178C32.2695 12.1777 32.2696 12.1772 32.2697 12.1769C32.2719 12.171 32.274 12.165 32.2761 12.1591C32.3138 12.053 32.1826 11.9779 32.0985 12.0529C31.429 12.65 30.5781 13.0492 29.6381 13.1554C29.4717 13.1753 29.3026 13.1853 29.1334 13.1853C29.032 13.1853 28.9372 13.1395 28.8647 13.0687C28.5231 12.7348 28.1258 12.4556 27.6904 12.2456C27.1516 11.9825 26.5488 11.8276 25.9133 11.8077C25.8607 11.8048 25.8095 11.8034 25.7555 11.8034C25.2167 11.8034 24.6992 11.8987 24.2216 12.075C24.0993 12.119 23.9799 12.1688 23.8633 12.2257C22.3492 12.9351 21.3015 14.4747 21.3015 16.2575C21.3015 16.794 20.8935 17.2981 20.3611 17.231C20.2591 17.2181 20.1574 17.204 20.0561 17.1887C19.9111 17.1659 19.7675 17.1403 19.6239 17.1133C18.4752 16.9001 17.3791 16.5333 16.3612 16.0328C15.4499 15.5879 14.6012 15.0377 13.8278 14.3979C13.1781 13.862 12.5839 13.2649 12.0522 12.6109C12.0173 12.5696 11.9539 12.5721 11.9272 12.6191C11.9173 12.6366 11.9078 12.6542 11.8986 12.6721C11.5276 13.3218 11.3172 14.0724 11.3172 14.8742C11.3172 14.8984 11.3172 14.9254 11.3186 14.9496C11.3271 15.5495 11.4551 16.121 11.6825 16.6413C11.7792 16.8716 11.8972 17.0891 12.0323 17.2967C12.4303 17.9094 12.9734 18.4198 13.616 18.7724C13.6427 18.7889 13.6363 18.8333 13.6051 18.8375C13.5916 18.8393 13.5782 18.8408 13.5648 18.842C13.4326 18.8591 13.2975 18.8676 13.1611 18.8676C12.5191 18.8676 11.9197 18.6797 11.4182 18.3555C11.375 18.3276 11.3186 18.3556 11.3186 18.407C11.3186 19.6794 11.8517 20.8267 12.7061 21.6356C13.1075 22.0181 13.5796 22.3255 14.1008 22.5364C14.3686 22.6448 14.3726 23.0146 14.0837 23.0146C13.5951 23.0146 13.1435 23.4766 13.4083 23.8873C13.6704 24.2938 13.9969 24.6549 14.3733 24.9563C15.2352 25.6463 15.6784 27.1088 14.6471 27.5028C13.9234 27.7794 13.1381 27.9307 12.318 27.9307C11.9062 27.9307 11.5311 28.7504 11.9009 28.9317C13.6024 29.7659 15.5162 30.2338 17.5398 30.2338C24.6239 30.2338 30.366 24.4917 30.366 17.4076C30.366 16.721 30.7719 16.098 31.3238 15.6896C32.0123 15.1803 32.5491 14.4765 32.8527 13.6589C32.8533 13.6574 32.8521 13.6558 32.8505 13.6558Z" fill="#F7C1D9"/>
</g>
</svg>
