<svg width="334" height="208" viewBox="0 0 334 208" fill="none" xmlns="http://www.w3.org/2000/svg">
<path d="M107.847 8C107.847 3.58173 104.265 0 99.8469 0C95.4286 0 91.8469 3.58173 91.8469 8C91.8469 12.4183 95.4286 16 99.8469 16C104.265 16 107.847 12.4183 107.847 8ZM334 204.5L97.3593 204.5V207.5L334 207.5V204.5ZM88.8593 196V158.809H85.8593V196H88.8593ZM77.3593 147.309L11.9998 147.309V150.309L77.3593 150.309V147.309ZM3.49976 138.809V18H0.499756V138.809H3.49976ZM11.9998 9.5L99.8469 9.5V6.5L11.9998 6.5V9.5ZM3.49976 18C3.49976 13.3056 7.30533 9.5 11.9998 9.5V6.5C5.64847 6.5 0.499756 11.6487 0.499756 18H3.49976ZM11.9998 147.309C7.30533 147.309 3.49976 143.503 3.49976 138.809H0.499756C0.499756 145.16 5.64847 150.309 11.9998 150.309V147.309ZM88.8593 158.809C88.8593 152.457 83.7106 147.309 77.3593 147.309V150.309C82.0537 150.309 85.8593 154.114 85.8593 158.809H88.8593ZM97.3593 204.5C92.6649 204.5 88.8593 200.694 88.8593 196H85.8593C85.8593 202.351 91.008 207.5 97.3593 207.5V204.5Z" fill="black"/>
</svg>
