<svg width="359" height="196" viewBox="0 0 359 196" fill="none" xmlns="http://www.w3.org/2000/svg">
<path d="M241 8.5C241 12.9183 244.582 16.5 249 16.5C253.419 16.5 257 12.9183 257 8.5C257 4.08172 253.419 0.5 249 0.5C244.582 0.5 241 4.08172 241 8.5ZM0 195.5H168.251V192.5H0V195.5ZM179.751 184V166.5H176.751V184H179.751ZM188.251 158H275.599V155H188.251V158ZM287.099 146.5V73.5H284.099V146.5H287.099ZM295.599 65H346.999V62H295.599V65ZM358.499 53.5V18.5H355.499V53.5H358.499ZM346.999 7H249V10H346.999V7ZM358.499 18.5C358.499 12.1487 353.35 7 346.999 7V10C351.693 10 355.499 13.8056 355.499 18.5H358.499ZM346.999 65C353.35 65 358.499 59.8513 358.499 53.5H355.499C355.499 58.1944 351.693 62 346.999 62V65ZM287.099 73.5C287.099 68.8056 290.905 65 295.599 65V62C289.248 62 284.099 67.1487 284.099 73.5H287.099ZM275.599 158C281.951 158 287.099 152.851 287.099 146.5H284.099C284.099 151.194 280.294 155 275.599 155V158ZM179.751 166.5C179.751 161.806 183.557 158 188.251 158V155C181.9 155 176.751 160.149 176.751 166.5H179.751ZM168.251 195.5C174.602 195.5 179.751 190.351 179.751 184H176.751C176.751 188.694 172.946 192.5 168.251 192.5V195.5Z" fill="black"/>
</svg>
