<svg width="530" height="12" viewBox="0 0 530 12" fill="none" xmlns="http://www.w3.org/2000/svg">
<path d="M0.666667 6C0.666667 8.94552 3.05448 11.3333 6 11.3333C8.94552 11.3333 11.3333 8.94552 11.3333 6C11.3333 3.05448 8.94552 0.666667 6 0.666667C3.05448 0.666667 0.666667 3.05448 0.666667 6ZM518.667 6C518.667 8.94552 521.055 11.3333 524 11.3333C526.945 11.3333 529.333 8.94552 529.333 6C529.333 3.05448 526.945 0.666667 524 0.666667C521.055 0.666667 518.667 3.05448 518.667 6ZM6 7L524 7V5L6 5V7Z" fill="black"/>
</svg>
