<svg width="114" height="115" viewBox="0 0 114 115" fill="none" xmlns="http://www.w3.org/2000/svg">
<path d="M11.5443 1.99972L11.5443 0.499726L11.5443 1.99972ZM1.54426 11.9997L3.04425 11.9997L1.54426 11.9997ZM1.54425 96.5001L0.0442538 96.5001L0.0442538 96.5001L1.54425 96.5001ZM11.5443 106.5L11.5443 108L11.5443 106.5ZM93.5429 106.542C93.5659 102.124 90.0029 98.5232 85.5846 98.5002C81.1664 98.4772 77.5661 102.04 77.5431 106.458C77.5201 110.877 81.0831 114.477 85.5013 114.5C89.9195 114.523 93.5198 110.96 93.5429 106.542ZM113.543 0.49976L11.5443 0.499726L11.5443 3.49972L113.543 3.49975L113.543 0.49976ZM0.04426 11.9997L0.0442538 96.5001L3.04425 96.5001L3.04425 11.9997L0.04426 11.9997ZM11.5443 108L85.543 108L85.543 105L11.5443 105L11.5443 108ZM0.0442538 96.5001C0.0442557 102.851 5.19298 108 11.5443 108L11.5443 105C6.84983 105 3.04426 101.195 3.04425 96.5001L0.0442538 96.5001ZM11.5443 0.499726C5.193 0.49972 0.0442504 5.64844 0.04426 11.9997L3.04425 11.9997C3.04425 7.30531 6.84985 3.49972 11.5443 3.49972L11.5443 0.499726Z" fill="#F7C1D9"/>
</svg>
