<svg width="125" height="200" viewBox="0 0 125 200" fill="none" xmlns="http://www.w3.org/2000/svg">
<path d="M14.043 192C14.043 196.418 17.6247 200 22.043 200C26.4612 200 30.043 196.418 30.043 192C30.043 187.582 26.4612 184 22.043 184C17.6247 184 14.043 187.582 14.043 192ZM0.542969 3.5H113.043V0.5L0.542969 0.5V3.5ZM121.543 12V182H124.543V12H121.543ZM113.043 190.5H22.043V193.5H113.043V190.5ZM121.543 182C121.543 186.694 117.737 190.5 113.043 190.5V193.5C119.394 193.5 124.543 188.351 124.543 182H121.543ZM113.043 3.5C117.737 3.5 121.543 7.30558 121.543 12H124.543C124.543 5.64873 119.394 0.5 113.043 0.5V3.5Z" fill="#C5DBE9"/>
</svg>
