<svg width="313" height="285" viewBox="0 0 313 285" fill="none" xmlns="http://www.w3.org/2000/svg">
<path d="M119 8C119 12.4183 122.582 16 127 16C131.418 16 135 12.4183 135 8C135 3.58172 131.418 0 127 0C122.582 0 119 3.58172 119 8ZM0.5 276.5C0.5 280.918 4.08172 284.5 8.5 284.5C12.9183 284.5 16.5 280.918 16.5 276.5C16.5 272.082 12.9183 268.5 8.5 268.5C4.08172 268.5 0.5 272.082 0.5 276.5ZM127 9.5L301.5 9.5V6.5L127 6.5V9.5ZM310 18V74.5H313V18H310ZM301.5 83H235V86H301.5V83ZM223.5 94.5V205H226.5V94.5H223.5ZM215 213.5H104.5V216.5H215V213.5ZM93 225V266.5H96V225H93ZM84.5 275H8.5V278H84.5V275ZM93 266.5C93 271.194 89.1944 275 84.5 275V278C90.8513 278 96 272.851 96 266.5H93ZM104.5 213.5C98.1487 213.5 93 218.649 93 225H96C96 220.306 99.8056 216.5 104.5 216.5V213.5ZM223.5 205C223.5 209.694 219.694 213.5 215 213.5V216.5C221.351 216.5 226.5 211.351 226.5 205H223.5ZM235 83C228.649 83 223.5 88.1487 223.5 94.5H226.5C226.5 89.8056 230.306 86 235 86V83ZM310 74.5C310 79.1944 306.194 83 301.5 83V86C307.851 86 313 80.8513 313 74.5H310ZM301.5 9.5C306.194 9.5 310 13.3056 310 18H313C313 11.6487 307.851 6.5 301.5 6.5V9.5Z" fill="black"/>
</svg>
