<svg width="318" height="285" viewBox="0 0 318 285" fill="none" xmlns="http://www.w3.org/2000/svg">
<path d="M177 8C177 12.4183 180.582 16 185 16C189.418 16 193 12.4183 193 8C193 3.58172 189.418 0 185 0C180.582 0 177 3.58172 177 8ZM302 277C302 281.418 305.582 285 310 285C314.418 285 318 281.418 318 277C318 272.582 314.418 269 310 269C305.582 269 302 272.582 302 277ZM89.3744 9.5L185 9.5V6.5L89.3744 6.5V9.5ZM80.8744 75.75L80.8744 18H77.8744L77.8744 75.75H80.8744ZM12 87.25L69.3744 87.25V84.25L12 84.25V87.25ZM3.5 152L3.5 95.75H0.5L0.5 152H3.5ZM99.3258 160.5H12L12 163.5H99.3258V160.5ZM310 275.5L119.326 275.5L119.326 278.5L310 278.5V275.5ZM110.826 267V172L107.826 172V267H110.826ZM119.326 275.5C114.631 275.5 110.826 271.694 110.826 267H107.826C107.826 273.351 112.974 278.5 119.326 278.5L119.326 275.5ZM99.3258 163.5C104.02 163.5 107.826 167.306 107.826 172L110.826 172C110.826 165.649 105.677 160.5 99.3258 160.5V163.5ZM0.5 152C0.5 158.351 5.64873 163.5 12 163.5L12 160.5C7.30559 160.5 3.5 156.694 3.5 152H0.5ZM12 84.25C5.64873 84.25 0.5 89.3987 0.5 95.75H3.5C3.5 91.0556 7.30558 87.25 12 87.25V84.25ZM77.8744 75.75C77.8744 80.4444 74.0688 84.25 69.3744 84.25V87.25C75.7257 87.25 80.8744 82.1013 80.8744 75.75H77.8744ZM89.3744 6.5C83.0231 6.5 77.8744 11.6487 77.8744 18H80.8744C80.8744 13.3056 84.68 9.5 89.3744 9.5V6.5Z" fill="black"/>
</svg>
