<svg width="34" height="26" viewBox="0 0 34 26" fill="none" xmlns="http://www.w3.org/2000/svg">
<path d="M29.75 0.941895H4.25C3.12283 0.941895 2.04182 1.38966 1.24479 2.18669C0.447763 2.98372 0 4.06472 0 5.19189V21.1294C0 22.2566 0.447763 23.3376 1.24479 24.1346C2.04182 24.9316 3.12283 25.3794 4.25 25.3794H29.75C30.8772 25.3794 31.9582 24.9316 32.7552 24.1346C33.5522 23.3376 34 22.2566 34 21.1294V5.19189C34 4.06472 33.5522 2.98372 32.7552 2.18669C31.9582 1.38966 30.8772 0.941895 29.75 0.941895ZM31.875 21.1294C31.875 21.693 31.6511 22.2335 31.2526 22.632C30.8541 23.0305 30.3136 23.2544 29.75 23.2544H4.25C3.68641 23.2544 3.14591 23.0305 2.7474 22.632C2.34888 22.2335 2.125 21.693 2.125 21.1294V5.19189C2.125 4.62831 2.34888 4.08781 2.7474 3.68929C3.14591 3.29078 3.68641 3.06689 4.25 3.06689H29.75C30.3136 3.06689 30.8541 3.29078 31.2526 3.68929C31.6511 4.08781 31.875 4.62831 31.875 5.19189V21.1294Z" fill="white"/>
<path d="M29.5053 6.64761C29.4169 6.53924 29.3079 6.44942 29.1847 6.38326C29.0614 6.31711 28.9263 6.27594 28.7871 6.26212C28.648 6.2483 28.5074 6.26209 28.3736 6.30272C28.2397 6.34335 28.1152 6.41 28.0072 6.49886L16.9997 15.5089L5.98158 6.49886C5.8756 6.39975 5.75043 6.3234 5.61382 6.27451C5.4772 6.22563 5.33201 6.20525 5.18722 6.21462C5.04242 6.224 4.90108 6.26293 4.7719 6.32902C4.64273 6.39511 4.52846 6.48696 4.43614 6.59891C4.34382 6.71085 4.27543 6.84052 4.23514 6.97992C4.19486 7.11931 4.18354 7.26548 4.20191 7.40942C4.22027 7.55335 4.26793 7.69199 4.34193 7.8168C4.41594 7.94161 4.51473 8.04993 4.6322 8.1351L16.3197 17.6976C16.5109 17.856 16.7514 17.9425 16.9997 17.942C17.2443 17.94 17.4807 17.8537 17.6691 17.6976L29.3566 8.1351C29.5723 7.95675 29.709 7.70047 29.7368 7.42195C29.7647 7.14342 29.6815 6.86515 29.5053 6.64761Z" fill="white"/>
<path d="M25.1815 15.0624C24.9825 14.8645 24.7132 14.7534 24.4325 14.7534C24.1518 14.7534 23.8825 14.8645 23.6834 15.0624C23.5838 15.1612 23.5048 15.2787 23.4509 15.4081C23.3969 15.5376 23.3691 15.6765 23.3691 15.8168C23.3691 15.957 23.3969 16.0959 23.4509 16.2254C23.5048 16.3548 23.5838 16.4724 23.6834 16.5711L27.9334 20.8211C28.0325 20.9195 28.15 20.9974 28.2791 21.0504C28.4083 21.1033 28.5466 21.1303 28.6862 21.1298C28.8259 21.1294 28.964 21.1014 29.0928 21.0475C29.2216 20.9936 29.3385 20.9149 29.4369 20.8158C29.5352 20.7168 29.6131 20.5993 29.6661 20.4701C29.7191 20.3409 29.7461 20.2026 29.7456 20.063C29.7451 19.9234 29.7171 19.7852 29.6632 19.6565C29.6093 19.5277 29.5306 19.4107 29.4315 19.3124L25.1815 15.0624Z" fill="white"/>
<path d="M8.85115 15.0624L4.60115 19.3124C4.40108 19.511 4.28811 19.7811 4.28712 20.063C4.28612 20.3449 4.39717 20.6158 4.59583 20.8158C4.7945 21.0159 5.06451 21.1288 5.34645 21.1298C5.6284 21.1308 5.89921 21.0198 6.09928 20.8211L10.3493 16.5711C10.4489 16.4724 10.5279 16.3548 10.5818 16.2254C10.6358 16.0959 10.6636 15.957 10.6636 15.8168C10.6636 15.6765 10.6358 15.5376 10.5818 15.4081C10.5279 15.2787 10.4489 15.1612 10.3493 15.0624C10.1502 14.8645 9.88091 14.7534 9.60022 14.7534C9.31952 14.7534 9.05022 14.8645 8.85115 15.0624Z" fill="white"/>
</svg>
