<svg width="34" height="34" viewBox="0 0 34 34" fill="none" xmlns="http://www.w3.org/2000/svg">
<path d="M33.8896 15.1088C30.987 8.32851 25.5684 2.93787 18.7732 0.0703899C18.4995 -0.0317691 18.1967 -0.0224172 17.9298 0.0964155C17.663 0.215248 17.4534 0.434074 17.3463 0.705823C17.2879 0.841807 17.2572 0.98806 17.2559 1.13604C17.2546 1.28403 17.2828 1.43078 17.3388 1.56775C17.3949 1.70472 17.4776 1.82916 17.5822 1.93382C17.6869 2.03848 17.8113 2.12125 17.9483 2.17732C24.212 4.82362 29.2066 9.79424 31.883 16.0452C32.0027 16.3103 32.2212 16.5181 32.492 16.6243C32.7627 16.7305 33.0642 16.7268 33.3322 16.6137C33.4694 16.5537 33.5932 16.4666 33.696 16.3576C33.7988 16.2487 33.8786 16.1201 33.9306 15.9797C33.9827 15.8392 34.0058 15.6897 33.9988 15.54C33.9917 15.3904 33.9546 15.2437 33.8896 15.1088Z" fill="white"/>
<path d="M17.3685 8.19714C21.1653 9.79639 24.1942 12.8053 25.8186 16.5914C25.9048 16.7782 26.0411 16.9375 26.2122 17.0516C26.3834 17.1657 26.5828 17.2302 26.7884 17.238C26.9389 17.2369 27.0874 17.2026 27.2232 17.1377C27.4795 17.0121 27.6779 16.7929 27.7775 16.5254C27.877 16.2578 27.8702 15.9622 27.7583 15.6996C25.9171 11.4011 22.4803 7.98431 18.1712 6.16823C17.9058 6.07403 17.6146 6.08375 17.3561 6.19541C17.0976 6.30708 16.891 6.51244 16.7777 6.77022C16.6729 7.03834 16.6759 7.33659 16.786 7.60257C16.8961 7.86854 17.1048 8.0816 17.3685 8.19714Z" fill="white"/>
<path d="M28.1039 21.4408C27.8621 21.1583 27.5621 20.9316 27.2244 20.7761C26.8866 20.6206 26.5192 20.5401 26.1474 20.5401C25.7757 20.5401 25.4083 20.6206 25.0705 20.7761C24.7328 20.9316 24.4328 21.1583 24.191 21.4408C23.2769 22.3438 22.3628 23.2579 21.4598 24.1832C21.4196 24.2427 21.3679 24.2936 21.3076 24.3327C21.2474 24.3719 21.1799 24.3985 21.1092 24.4109C21.0384 24.4234 20.9659 24.4215 20.8959 24.4054C20.8259 24.3892 20.7599 24.3592 20.7018 24.317C20.1109 23.9937 19.4755 23.7373 18.907 23.3805C16.298 21.6897 13.9855 19.5805 12.0622 17.1378C11.0581 15.954 10.2284 14.6326 9.59854 13.2138C9.53004 13.0961 9.50696 12.9575 9.53366 12.824C9.56036 12.6905 9.63499 12.5714 9.74346 12.4891C10.6576 11.5973 11.5494 10.6943 12.4524 9.78023C12.7471 9.53544 12.9842 9.22874 13.147 8.88194C13.3098 8.53513 13.3942 8.15672 13.3942 7.77362C13.3942 7.39052 13.3098 7.01213 13.147 6.66532C12.9842 6.31852 12.7471 6.0118 12.4524 5.76701C11.7389 5.04241 11.0255 4.3401 10.3009 3.6155L8.07129 1.38593C7.82058 1.11733 7.51906 0.901169 7.18418 0.749992C6.84929 0.598815 6.48771 0.515622 6.12043 0.505249C5.75079 0.517432 5.38718 0.602495 5.05049 0.755537C4.71379 0.908579 4.41063 1.12659 4.1584 1.39708C3.23314 2.30005 2.35246 3.23646 1.40489 4.12828C0.570658 4.91509 0.0716248 5.99305 0.0114362 7.1382C-0.0679767 9.01628 0.266954 10.8888 0.992448 12.6229C2.38289 16.2278 4.38546 19.5654 6.91191 22.4887C10.2345 26.4818 14.3741 29.7166 19.0519 31.9755C21.1271 33.0719 23.4019 33.7392 25.7406 33.9375H26.1753C26.8893 33.9677 27.601 33.8383 28.2586 33.5587C28.9162 33.279 29.5032 32.8563 29.9767 32.3211C30.7571 31.4404 31.6378 30.6378 32.4738 29.8017C32.763 29.5557 32.9952 29.2499 33.1544 28.9054C33.3137 28.5608 33.3962 28.1858 33.3962 27.8062C33.3962 27.4267 33.3137 27.0516 33.1544 26.7071C32.9952 26.3625 32.763 26.0567 32.4738 25.8108C31.0321 24.3541 29.5754 22.8975 28.1039 21.4408ZM30.9131 28.2521L30.077 29.0771C29.4974 29.6345 28.9065 30.1918 28.3269 30.8496C28.0658 31.153 27.7371 31.3908 27.3673 31.5438C26.9974 31.6968 26.5967 31.7607 26.1976 31.7303H25.8855C23.8348 31.5532 21.8407 30.9656 20.0217 30.0023C15.6333 27.8681 11.7466 24.8287 8.61752 21.0841C6.2389 18.3617 4.35273 15.2458 3.04362 11.876C2.43233 10.4479 2.14309 8.90257 2.19641 7.35C2.22193 6.75348 2.47764 6.19009 2.90985 5.77817C3.48954 5.22078 4.02463 4.66338 4.61547 4.09484L5.73025 2.98006C5.76676 2.90467 5.82379 2.8411 5.89477 2.79661C5.96575 2.75212 6.04782 2.72853 6.13159 2.72853C6.21535 2.72853 6.29742 2.75212 6.3684 2.79661C6.43938 2.8411 6.49638 2.90467 6.53289 2.98006C7.02339 3.45942 7.50277 3.94992 7.98212 4.44042L8.71788 5.17618L9.83266 6.29096L10.8917 7.35C11.3042 7.76247 11.2819 7.84052 10.8917 8.21954L10.5127 8.59856C9.75461 9.37891 8.98542 10.137 8.18278 10.9173C7.76361 11.3155 7.47923 11.8346 7.36932 12.4021C7.2594 12.9697 7.32944 13.5574 7.56966 14.0833C8.27324 15.6992 9.21243 17.2019 10.3566 18.5424C12.44 21.1633 14.9408 23.4231 17.7587 25.2311C18.1935 25.4986 18.6394 25.7216 19.0296 25.9111L19.6316 26.2121C20.0573 26.4635 20.5418 26.5981 21.0362 26.6023C21.4211 26.6003 21.8014 26.518 22.1527 26.3606C22.504 26.2032 22.8186 25.9741 23.0762 25.6881C23.9569 24.7852 24.8488 23.9045 25.7852 22.9792C25.8805 22.8551 26.0135 22.7651 26.1642 22.7228C26.32 22.7605 26.458 22.8511 26.5544 22.9792C28.0407 24.4656 29.5271 25.926 31.0135 27.3603C31.2699 27.7505 31.3033 27.8508 30.9131 28.2521Z" fill="white"/>
</svg>
