<svg width="34" height="35" viewBox="0 0 34 35" fill="none" xmlns="http://www.w3.org/2000/svg">
<path d="M30.7564 27.1492C32.1031 25.3073 33.0611 23.2116 33.5722 20.9891C34.0834 18.7665 34.137 16.4636 33.73 14.2197C33.323 11.9759 32.4637 9.83791 31.2043 7.93546C29.9449 6.03301 28.3116 4.40569 26.4034 3.15217C24.4952 1.89865 22.3518 1.04505 20.1033 0.643095C17.8548 0.241141 15.5479 0.299218 13.3225 0.813808C11.0971 1.3284 8.99964 2.28877 7.15716 3.63672C5.31468 4.98467 3.76562 6.6921 2.60388 8.6555L2.53006 8.72919C2.5 8.77778 2.4786 8.83119 2.4668 8.88707C0.769676 11.6532 -0.0850525 14.8523 0.00668004 18.0948C0.0984125 21.3372 1.13264 24.4831 2.98345 27.1492C2.98345 27.1492 2.98345 27.1492 2.98345 27.2124C4.53401 29.418 6.59212 31.2201 8.98492 32.4672C11.3777 33.7143 14.0354 34.37 16.7346 34.3793C19.4339 34.3886 22.096 33.7511 24.4974 32.5205C26.8987 31.2899 28.9692 29.5021 30.535 27.3071C30.5828 27.2592 30.6252 27.2063 30.6615 27.1492H30.7564ZM29.5227 25.1704C27.4654 23.9946 25.2547 23.109 22.9538 22.5389C23.1274 20.8921 23.2154 19.2373 23.2174 17.5813C23.2174 16.2656 23.1541 14.9394 23.0487 13.6552C25.4855 13.0436 27.817 12.0715 29.9656 10.7712C31.1444 13.0049 31.7232 15.5055 31.6456 18.0291C31.568 20.5526 30.8366 23.013 29.5227 25.1704ZM16.8699 32.3174C15.6257 32.3174 13.9703 29.2859 13.1584 24.202C15.6022 23.7997 18.0955 23.7997 20.5393 24.202C19.7695 29.2544 18.1141 32.3174 16.8699 32.3174ZM16.8699 21.7916C15.5348 21.7939 14.202 21.903 12.8843 22.1179C12.7277 20.6108 12.6502 19.0965 12.6523 17.5813C12.6523 16.3498 12.705 15.192 12.7894 14.0868C14.138 14.3104 15.5028 14.423 16.8699 14.4236C18.2368 14.4178 19.6012 14.3051 20.9505 14.0868C21.0348 15.1394 21.0875 16.3498 21.0875 17.5813C21.0896 19.0965 21.0122 20.6108 20.8556 22.1179C19.5379 21.903 18.2051 21.7939 16.8699 21.7916ZM16.8699 2.84531C18.1985 2.84531 20.0331 6.27669 20.729 11.9816C18.176 12.4307 15.5639 12.4307 13.0108 11.9816C13.7067 6.27669 15.5414 2.84531 16.8699 2.84531ZM28.8374 8.98182C26.9616 10.1212 24.93 10.9828 22.8062 11.5396C22.5258 8.65486 21.6955 5.85028 20.36 3.27687C23.7763 4.10976 26.7825 6.13283 28.8374 8.98182ZM13.3799 3.27687C12.0443 5.85028 11.214 8.65486 10.9336 11.5396C8.80987 10.9828 6.77829 10.1212 4.90246 8.98182C6.95731 6.13283 9.96354 4.10976 13.3799 3.27687ZM3.79536 10.7712C5.94398 12.0715 8.27541 13.0436 10.7122 13.6552C10.6068 14.9499 10.5435 16.2656 10.5435 17.5813C10.5455 19.2373 10.6335 20.8921 10.8071 22.5389C8.50624 23.109 6.29557 23.9946 4.23819 25.1704C2.92431 23.013 2.19293 20.5526 2.11532 18.0291C2.03771 15.5055 2.61653 13.0049 3.79536 10.7712ZM5.45077 26.9071C7.22076 25.9008 9.11802 25.1361 11.0918 24.6336C11.4131 27.1683 12.1881 29.6247 13.3799 31.8858C10.2655 31.1296 7.48226 29.382 5.45077 26.9071ZM20.36 31.8858C21.5517 29.6247 22.3267 27.1683 22.6481 24.6336C24.6218 25.1361 26.5191 25.9008 28.2891 26.9071C26.2576 29.382 23.4744 31.1296 20.36 31.8858Z" fill="white"/>
</svg>
